<?xml version="1.0" standalone="no"?>
<!DOCTYPE svg PUBLIC "-//W3C//DTD SVG 1.1//EN" "http://www.w3.org/Graphics/SVG/1.1/DTD/svg11.dtd" >
<svg xmlns="http://www.w3.org/2000/svg" xmlns:xlink="http://www.w3.org/1999/xlink" version="1.1">
<metadata></metadata>
<defs>
<font id="gothamssmbook" horiz-adv-x="1699" >
<font-face units-per-em="2048" ascent="1638" descent="-410" />
<missing-glyph horiz-adv-x="651" />
<glyph unicode="&#xfb01;" horiz-adv-x="1380" d="M96 940v164h150v92q0 188 94 283q90 86 242 86q102 0 188 -29v-166q-86 29 -156 29q-178 0 -178 -215v-80h332v-164h-330v-940h-192v940h-150zM977 1329v201h215v-201h-215zM989 0v1108h191v-1108h-191z" />
<glyph unicode="&#xfb02;" horiz-adv-x="1380" d="M96 940v164h150v92q0 188 94 283q90 86 242 86q102 0 188 -29v-166q-86 29 -156 29q-178 0 -178 -215v-80h332v-164h-330v-940h-192v940h-150zM987 0v1554h191v-1554h-191z" />
<glyph unicode="&#xfb03;" horiz-adv-x="2168" d="M96 940v164h150v92q0 188 94 283q90 86 242 86q102 0 188 -29v-166q-86 29 -156 29q-178 0 -178 -215v-80h332v-164h-330v-940h-192v940h-150zM885 940v164h149v92q0 188 94 283q88 86 242 86q102 0 189 -29v-166q-86 29 -156 29q-178 0 -178 -215v-80h331v-164h-329 v-940h-193v940h-149zM1763 1329v201h215v-201h-215zM1776 0v1108h190v-1108h-190z" />
<glyph unicode="&#xfb04;" horiz-adv-x="2168" d="M96 940v164h150v92q0 188 94 283q90 86 242 86q102 0 188 -29v-166q-86 29 -156 29q-178 0 -178 -215v-80h332v-164h-330v-940h-192v940h-150zM885 940v164h149v92q0 188 94 283q88 86 242 86q102 0 189 -29v-166q-86 29 -156 29q-178 0 -178 -215v-80h331v-164h-329 v-940h-193v940h-149zM1776 0v1554h190v-1554h-190z" />
<glyph horiz-adv-x="0" />
<glyph unicode="&#xd;" horiz-adv-x="681" />
<glyph unicode=" "  horiz-adv-x="651" />
<glyph unicode="&#x09;" horiz-adv-x="651" />
<glyph unicode="&#xa0;" horiz-adv-x="651" />
<glyph unicode="!" horiz-adv-x="614" d="M195 1384v107h225v-107l-60 -948h-106zM197 0v246h221v-246h-221z" />
<glyph unicode="&#x22;" horiz-adv-x="983" d="M143 895l60 596h227v-10l-184 -586h-103zM575 895l60 596h225v-10l-182 -586h-103z" />
<glyph unicode="#" horiz-adv-x="1507" d="M100 367v170h248l72 426h-238v170h269l61 358h174l-61 -358h387l63 358h172l-61 -358h219v-170h-248l-74 -426h242v-170h-270l-62 -367h-174l62 367h-387l-64 -367h-174l61 367h-217zM520 532h393l74 435h-393z" />
<glyph unicode="$" horiz-adv-x="1374" d="M123 221l108 148q186 -168 402 -199v500q-240 57 -348.5 155.5t-106.5 266.5v2q0 168 124 276.5t325 120.5v123h149v-127q211 -21 406 -168l-101 -150q-152 121 -311 148v-490q242 -57 352.5 -156.5t108.5 -262.5v-2q0 -170 -126 -281t-329 -123v-211h-149v213 q-274 27 -504 217zM369 1104q0 -90 55 -145.5t209 -98.5v467q-125 -8 -194.5 -69.5t-69.5 -151.5v-2zM770 164q129 10 200.5 70.5t69.5 158.5v2q0 90 -58 146.5t-212 95.5v-473z" />
<glyph unicode="%" horiz-adv-x="1802" d="M117 1122v4q0 158 96 269.5t248 111.5q147 0 243.5 -110.5t96.5 -266.5v-4q0 -158 -97.5 -269.5t-247 -111.5t-244.5 111t-95 266zM270 0l578 780l514 711h170l-580 -784l-512 -707h-170zM272 1126q0 -106 54.5 -176.5t134.5 -70.5t132 70.5t52 172.5v4q0 104 -54 177 t-134 73t-132.5 -71.5t-52.5 -174.5v-4zM1001 360v5q0 158 97.5 269t247 111t245 -110.5t95.5 -265.5v-4q0 -158 -96.5 -269.5t-248.5 -111.5q-150 0 -245 110.5t-95 265.5zM1157 365q0 -104 54.5 -177t134 -73t132 71.5t52.5 173.5v5q0 104 -54.5 175.5t-134 71.5 t-132 -70.5t-52.5 -172.5v-4z" />
<glyph unicode="&#x26;" horiz-adv-x="1499" d="M100 399v4q0 289 346 426q-141 168 -141 324v4q0 152 112.5 255.5t293.5 103.5q162 0 267 -99.5t105 -245.5v-4q0 -264 -344 -387l314 -319q84 121 174 319l155 -78q-109 -229 -211 -364l254 -256l-149 -113l-223 232q-211 -221 -478 -221q-207 0 -341 115.5t-134 303.5z M299 406q0 -113 82 -188t211 -75q180 0 344 174l-377 390q-131 -49 -195.5 -127t-64.5 -168v-6zM492 1149q0 -61 30.5 -117.5t108.5 -140.5q272 88 272 266v4q0 86 -56 141.5t-142 55.5q-92 0 -152.5 -58.5t-60.5 -146.5v-4z" />
<glyph unicode="'" horiz-adv-x="552" d="M143 895l60 596h229v-10l-184 -586h-105z" />
<glyph unicode="(" horiz-adv-x="944" d="M150 610v2q0 584 589 912l84 -129q-244 -156 -361.5 -346.5t-117.5 -438.5v-2q0 -244 118.5 -434t360.5 -346l-84 -129q-590 328 -589 911z" />
<glyph unicode=")" horiz-adv-x="944" d="M123 -172q242 156 359.5 345t117.5 437v2q0 475 -477 783l84 129q590 -328 590 -914v-2q0 -581 -590 -909z" />
<glyph unicode="*" horiz-adv-x="931" d="M147 1055l246 110l-246 113l64 108l219 -155l-27 264h125l-26 -264l219 155l63 -108l-245 -113l245 -110l-63 -109l-219 154l26 -264h-125l27 264l-219 -154z" />
<glyph unicode="+" horiz-adv-x="1353" d="M154 659v181h430v428h186v-428h430v-181h-430v-428h-186v428h-430z" />
<glyph unicode="," horiz-adv-x="552" d="M98 -188q168 49 156 188h-88v246h223v-211q0 -141 -63.5 -213.5t-200.5 -95.5z" />
<glyph unicode="-" horiz-adv-x="884" d="M139 545v196h606v-196h-606z" />
<glyph unicode="." horiz-adv-x="552" d="M166 0v246h223v-246h-223z" />
<glyph unicode="/" horiz-adv-x="1105" d="M-39 -272l981 1972h172l-981 -1972h-172z" />
<glyph unicode="0" horiz-adv-x="1546" d="M137 741v4q0 324 177.5 547.5t460 223.5t458.5 -221.5t176 -544.5v-5q0 -324 -177 -547t-462 -223q-283 0 -458 221.5t-175 544.5zM340 745q0 -246 120.5 -418.5t313.5 -172.5q195 0 312.5 170t117.5 417v4q0 246 -120.5 419t-313 173t-311.5 -171t-119 -416v-5z" />
<glyph unicode="1" horiz-adv-x="804" d="M68 1374l374 127h142v-1501h-195v1300l-276 -86z" />
<glyph unicode="2" horiz-adv-x="1300" d="M111 0v154l532 464q172 156 236.5 249.5t64.5 199.5q0 121 -81 194.5t-201 73.5q-117 0 -202 -58t-181 -187l-142 106q109 162 232 238.5t309 76.5q207 0 339 -120.5t132 -307.5v-4q0 -158 -84 -278.5t-297 -300.5l-371 -322h766v-178h-1052z" />
<glyph unicode="3" horiz-adv-x="1325" d="M111 238l141 129q174 -215 422 -215q129 0 217 75.5t88 194.5v4q0 129 -107.5 199.5t-287.5 70.5h-103l-37 121l449 500h-703v174h963v-145l-453 -492q207 -18 342.5 -122.5t135.5 -297.5v-4q0 -199 -144.5 -327t-363.5 -128q-352 0 -559 263z" />
<glyph unicode="4" horiz-adv-x="1452" d="M96 489l838 1012h172v-989h225v-164h-225v-348h-191v348h-776zM330 512h585v715z" />
<glyph unicode="5" horiz-adv-x="1327" d="M117 209l127 141q207 -197 411 -196q152 0 246 86t94 221v4q0 131 -98 212t-254 81q-150 0 -301 -78l-127 84l43 727h868v-178h-696l-29 -439q145 59 277 60q223 0 368.5 -124t145.5 -337v-4q0 -221 -149.5 -357.5t-389.5 -136.5q-299 0 -536 234z" />
<glyph unicode="6" horiz-adv-x="1400" d="M135 702v5q0 352 167 580.5t460 228.5q233 0 444 -168l-110 -154q-168 143 -344 143q-197 0 -305.5 -176t-108.5 -420v-10q154 209 405 209q217 0 368 -127t151 -334v-4q0 -217 -156 -358.5t-385 -141.5q-250 0 -402 152q-94 96 -139 226t-45 349zM362 461 q0 -135 100.5 -224.5t258.5 -89.5q154 0 247 91.5t93 228.5v4q0 131 -96.5 216t-249.5 85q-156 0 -254.5 -92t-98.5 -215v-4z" />
<glyph unicode="7" horiz-adv-x="1294" d="M154 1313v178h1022v-148l-676 -1343h-221l673 1313h-798z" />
<glyph unicode="8" horiz-adv-x="1357" d="M117 403v5q0 256 295 364q-244 113 -244 338v4q0 170 149.5 283.5t362.5 113.5t361.5 -112.5t148.5 -284.5v-4q0 -219 -244 -338q295 -121 295 -362v-4q0 -190 -158.5 -308t-402.5 -118t-403.5 117.5t-159.5 305.5zM313 410q0 -109 99.5 -186t267.5 -77q166 0 265 77 t99 186v4q0 117 -105 191.5t-259 74.5q-156 0 -261.5 -75t-105.5 -191v-4zM360 1098q0 -113 91.5 -185.5t228.5 -72.5q135 0 226 71.5t91 184.5v4q0 104 -90 173.5t-227 69.5q-139 0 -229.5 -68.5t-90.5 -172.5v-4z" />
<glyph unicode="9" horiz-adv-x="1400" d="M139 1004v4q0 217 152.5 362.5t390.5 145.5q246 0 399 -154q184 -184 185 -576v-4q0 -356 -173 -581.5t-454 -225.5q-250 0 -465 181l111 151q178 -153 360 -153q133 0 231.5 87t142.5 215t44 275v21q-147 -215 -401 -215q-231 0 -377 131t-146 336zM340 1012 q0 -135 96 -221t250 -86q158 0 255 94t97 223v4q0 135 -100 226t-260 91q-154 0 -246 -96t-92 -231v-4z" />
<glyph unicode=":" horiz-adv-x="575" d="M176 0v246h223v-246h-223zM176 864v244h223v-244h-223z" />
<glyph unicode=";" horiz-adv-x="575" d="M109 -188q168 45 155 188h-88v246h223v-211q0 -141 -63.5 -213.5t-200.5 -95.5zM176 864v244h223v-244h-223z" />
<glyph unicode="&#x3c;" horiz-adv-x="1353" d="M147 666v168l1004 489v-190l-803 -381l803 -383v-193z" />
<glyph unicode="=" horiz-adv-x="1353" d="M176 403v183h1002v-183h-1002zM176 913v183h1002v-183h-1002z" />
<glyph unicode="&#x3e;" horiz-adv-x="1353" d="M203 176v191l803 381l-803 385v190l1005 -489v-168z" />
<glyph unicode="?" horiz-adv-x="1163" d="M70 1266q203 244 503 243q217 0 350.5 -117.5t133.5 -306.5v-6q0 -188 -123 -295.5t-318 -134.5l-20 -213h-127l-37 346l10 11q205 6 310.5 79.5t105.5 202.5v4q0 111 -79 181.5t-212 70.5q-209 0 -374 -190zM420 0v246h221v-246h-221z" />
<glyph unicode="@" horiz-adv-x="2103" d="M121 584q0 385 272.5 658.5t661.5 273.5q385 0 656 -252t271 -590q0 -256 -116.5 -390t-284.5 -134q-231 0 -305 169q-152 -170 -344 -169q-164 0 -273.5 108.5t-109.5 282.5q0 221 150.5 376.5t338.5 155.5q199 0 308 -172l28 141l162 -24l-88 -498q-14 -78 -14 -119 q0 -78 46 -121.5t132 -43.5q121 0 206 113.5t85 324.5q0 145 -65.5 285.5t-176.5 247t-270.5 171t-335.5 64.5q-365 0 -609.5 -251t-244.5 -607q0 -360 245.5 -607t624.5 -247q287 0 528 143l37 -57q-264 -160 -565 -160q-406 0 -678 271.5t-272 656.5zM721 551 q0 -119 68.5 -186.5t181.5 -67.5q125 0 217 96q115 109 115 273q0 113 -70 185.5t-178 72.5q-123 0 -221 -99q-113 -113 -113 -274z" />
<glyph unicode="A" d="M84 0l674 1501h184l672 -1501h-209l-170 385h-778l-170 -385h-203zM530 561h631l-315 711z" />
<glyph unicode="B" horiz-adv-x="1554" d="M213 0v1491h645q254 0 389 -131q98 -102 99 -244v-4q0 -229 -230 -340q313 -100 314 -360v-4q0 -190 -148.5 -299t-396.5 -109h-672zM408 176h479q162 0 253 65.5t91 182.5v4q0 115 -93.5 177.5t-275.5 62.5h-454v-492zM408 838h415q150 0 237 62t87 183v4q0 106 -81 167 t-228 61h-430v-477z" />
<glyph unicode="C" horiz-adv-x="1595" d="M147 741v4q0 319 215.5 545t542.5 226q190 0 324.5 -59.5t257.5 -174.5l-129 -145q-212 198 -453 198h-2q-236 0 -393.5 -169t-157.5 -416v-5q0 -248 158 -418.5t393 -170.5q141 0 247.5 51t217.5 158l129 -127q-131 -131 -268 -197t-332 -66q-322 0 -536 221.5 t-214 544.5z" />
<glyph unicode="D" horiz-adv-x="1681" d="M213 0v1491h530q346 0 569.5 -212t223.5 -529v-5q0 -317 -223 -531t-570 -214h-530zM410 180h333q264 0 425 159t161 402v4q0 244 -162 405t-424 161h-333v-1131z" />
<glyph unicode="E" horiz-adv-x="1443" d="M213 0v1491h1085v-178h-888v-473h792v-178h-792v-484h899v-178h-1096z" />
<glyph unicode="F" horiz-adv-x="1413" d="M213 0v1491h1083v-180h-886v-494h790v-180h-790v-637h-197z" />
<glyph unicode="G" horiz-adv-x="1685" d="M147 741v4q0 317 213 544t541 227q180 0 309 -49.5t252 -149.5l-125 -150q-96 84 -198.5 126t-245.5 42q-229 0 -385 -172t-156 -413v-5q0 -258 156 -425.5t410 -167.5q236 0 407 139v342h-430v174h621v-604q-263 -228 -607 -228t-553 219.5t-209 546.5z" />
<glyph unicode="H" horiz-adv-x="1634" d="M213 0v1491h197v-649h815v649h198v-1491h-198v659h-815v-659h-197z" />
<glyph unicode="I" horiz-adv-x="653" d="M227 0v1491h199v-1491h-199z" />
<glyph unicode="J" horiz-adv-x="1198" d="M68 236l137 126q72 -104 147.5 -153t182.5 -49q123 0 198.5 88t75.5 250v993h201v-993q0 -258 -140 -392q-127 -126 -338 -126q-295 0 -464 256z" />
<glyph unicode="K" horiz-adv-x="1552" d="M213 0v1491h197v-848l811 848h252l-635 -647l661 -844h-244l-553 707l-292 -297v-410h-197z" />
<glyph unicode="L" horiz-adv-x="1329" d="M213 0v1491h197v-1311h823v-180h-1020z" />
<glyph unicode="M" horiz-adv-x="1865" d="M213 0v1491h203l516 -780l516 780h205v-1491h-197v1167l-522 -770h-8l-520 766v-1163h-193z" />
<glyph unicode="N" d="M213 0v1491h182l897 -1145v1145h195v-1491h-162l-919 1174v-1174h-193z" />
<glyph unicode="O" horiz-adv-x="1826" d="M147 741v4q0 317 218.5 544t549.5 227q334 0 549 -223.5t215 -542.5v-5q0 -317 -218 -543.5t-550 -226.5q-334 0 -549 223.5t-215 542.5zM352 745q0 -244 161 -416.5t402.5 -172.5t400.5 170t159 415v4q0 244 -161 417t-402.5 173t-400.5 -170t-159 -415v-5z" />
<glyph unicode="P" horiz-adv-x="1439" d="M213 0v1491h567q254 0 407.5 -130t153.5 -349v-4q0 -233 -168.5 -364.5t-420.5 -131.5h-342v-512h-197zM410 690h350q172 0 277.5 86t105.5 225v5q0 150 -101.5 227.5t-277.5 77.5h-354v-621z" />
<glyph unicode="Q" horiz-adv-x="1826" d="M147 741v4q0 317 218.5 544t549.5 227q334 0 549 -223.5t215 -542.5v-5q0 -274 -168 -485l189 -162l-131 -143l-193 172q-197 -152 -465 -152q-334 0 -549 223.5t-215 542.5zM352 745q0 -244 160.5 -416.5t402.5 -172.5q184 0 318 96l-272 235l131 146l274 -250 q109 150 109 358v4q0 244 -161 417t-402.5 173t-400.5 -170t-159 -415v-5z" />
<glyph unicode="R" horiz-adv-x="1556" d="M213 0v1491h647q283 0 426 -150q119 -115 119 -301v-4q0 -178 -105.5 -289.5t-283.5 -150.5l440 -596h-237l-412 561h-397v-561h-197zM410 737h436q162 0 261 78t99 211v4q0 133 -94 207t-266 74h-436v-574z" />
<glyph unicode="S" horiz-adv-x="1380" d="M115 217l121 143q119 -106 235.5 -155t261.5 -49q141 0 227.5 64.5t86.5 168.5v4q0 98 -78 158.5t-295 107.5q-260 53 -380 151.5t-120 283.5v4q0 180 140.5 296.5t355.5 116.5q297 0 528 -184l-111 -151q-196 159 -418 159h-3q-133 0 -214 -62.5t-81 -156.5v-4 q0 -106 78.5 -163.5t310.5 -110.5q252 -57 367.5 -155.5t115.5 -270.5v-4q0 -195 -143.5 -311.5t-372.5 -116.5q-346 0 -612 237z" />
<glyph unicode="T" horiz-adv-x="1384" d="M100 1309v182h1184v-182h-493v-1309h-197v1309h-494z" />
<glyph unicode="U" horiz-adv-x="1632" d="M188 627v864h199v-854q0 -231 113.5 -355t318.5 -124q199 0 312.5 119.5t113.5 349.5v864h197v-852q0 -319 -169 -490.5t-458 -171.5t-458 168t-169 482z" />
<glyph unicode="V" horiz-adv-x="1613" d="M84 1491h219l506 -1243l508 1243h213l-635 -1501h-176z" />
<glyph unicode="W" horiz-adv-x="2379" d="M98 1491h215l404 -1200l395 1204h164l395 -1204l406 1200h207l-529 -1501h-168l-397 1167l-395 -1167h-168z" />
<glyph unicode="X" horiz-adv-x="1562" d="M100 0l562 760l-541 731h233l430 -592l430 592h228l-541 -729l561 -762h-231l-453 621l-450 -621h-228z" />
<glyph unicode="Y" horiz-adv-x="1542" d="M59 1491h236l477 -721l481 721h230l-613 -897v-594h-198v590z" />
<glyph unicode="Z" horiz-adv-x="1499" d="M150 0v137l940 1180h-910v174h1172v-137l-940 -1180h940v-174h-1202z" />
<glyph unicode="[" horiz-adv-x="962" d="M205 -276v1767h622v-150h-440v-1468h440v-149h-622z" />
<glyph unicode="\" horiz-adv-x="1105" d="M-8 1700h174l979 -1972h-172z" />
<glyph unicode="]" horiz-adv-x="962" d="M133 -127h442v1468h-442v150h625v-1767h-625v149z" />
<glyph unicode="^" horiz-adv-x="1081" d="M139 1051l330 444h143l330 -444h-162l-241 313l-242 -313h-158z" />
<glyph unicode="_" horiz-adv-x="1294" d="M4 -186h1286v-154h-1286v154z" />
<glyph unicode="`" horiz-adv-x="1081" d="M303 1501l189 86l206 -319h-147z" />
<glyph unicode="a" horiz-adv-x="1253" d="M104 319v5q0 174 128 266t341 92q180 0 328 -47v37q0 139 -82 210.5t-231 71.5q-164 0 -330 -77l-55 153q209 94 407 94q238 0 361 -123q115 -115 114 -329v-672h-186v158q-143 -183 -387 -183q-166 0 -287 92.5t-121 251.5zM295 330q0 -94 74.5 -149.5t185.5 -55.5 q150 0 249 79t99 202v96q-145 47 -303 47q-145 0 -225 -57.5t-80 -157.5v-4z" />
<glyph unicode="b" horiz-adv-x="1435" d="M184 0v1554h193v-657q158 236 411 236q209 0 367 -158t158 -418v-4q0 -262 -158 -420t-367 -158q-258 0 -411 226v-201h-193zM371 553q0 -178 112.5 -293t264.5 -115q158 0 263 110t105 296v4q0 180 -107.5 294t-260.5 114q-152 0 -264.5 -116t-112.5 -290v-4z" />
<glyph unicode="c" horiz-adv-x="1232" d="M119 549v4q0 238 165 409t406 171q254 0 443 -197l-123 -131q-78 78 -150 118t-172 40q-158 0 -266.5 -119t-108.5 -287v-4q0 -172 111 -290t274 -118q172 0 324 156l119 -115q-187 -211 -453 -211q-242 0 -405.5 168t-163.5 406z" />
<glyph unicode="d" horiz-adv-x="1435" d="M123 551v4q0 262 155.5 420t368.5 158q248 0 412 -226v647h190v-1554h-190v211q-164 -236 -412 -236q-209 0 -366.5 158t-157.5 418zM319 553q0 -180 108 -294t259.5 -114t264 115t112.5 293v4q0 174 -112.5 290t-264.5 116q-158 0 -262.5 -111t-104.5 -295v-4z" />
<glyph unicode="e" horiz-adv-x="1284" d="M119 551v4q0 242 152.5 410t381.5 168q244 0 383.5 -169t139.5 -421q0 -14 -5 -60h-858q16 -162 120 -254t247 -92q190 0 336 150l117 -105q-181 -207 -457 -207q-233 0 -395 161t-162 415zM311 621h670q-12 152 -98 251t-232 99q-137 0 -230.5 -98t-109.5 -252z" />
<glyph unicode="f" horiz-adv-x="804" d="M96 940v164h150v92q0 188 94 283q90 86 242 86q102 0 188 -29v-166q-86 29 -156 29q-178 0 -178 -215v-80h332v-164h-330v-940h-192v940h-150z" />
<glyph unicode="g" horiz-adv-x="1435" d="M123 606v4q0 233 154.5 378t361.5 145q254 0 420 -215v190h190v-903q0 -262 -141 -402q-147 -147 -432 -147q-276 0 -502 145l82 150q188 -133 418 -133q182 0 283.5 95t101.5 282v116q-168 -225 -420 -225q-209 0 -362.5 144.5t-153.5 375.5zM319 608q0 -156 105.5 -255 t257.5 -99q154 0 267.5 100.5t113.5 251.5v4q0 156 -113.5 255.5t-267.5 99.5t-258.5 -97.5t-104.5 -255.5v-4z" />
<glyph unicode="h" horiz-adv-x="1331" d="M184 0v1554h193v-632q131 211 368 211q195 0 305.5 -120t110.5 -319v-694h-192v641q0 147 -75 231t-210 84q-133 0 -220 -89t-87 -236v-631h-193z" />
<glyph unicode="i" horiz-adv-x="591" d="M188 1329v201h215v-201h-215zM201 0v1108h190v-1108h-190z" />
<glyph unicode="j" horiz-adv-x="591" d="M-2 -180q25 -6 78 -6q125 0 125 143v1151h190v-1157q0 -299 -285 -299q-43 0 -108 10v158zM188 1329v201h215v-201h-215z" />
<glyph unicode="k" horiz-adv-x="1236" d="M184 0v1554h193v-1030l555 584h239l-458 -469l473 -639h-230l-374 506l-205 -209v-297h-193z" />
<glyph unicode="l" horiz-adv-x="591" d="M201 0v1554h190v-1554h-190z" />
<glyph unicode="m" horiz-adv-x="2041" d="M184 0v1108h193v-180q137 205 352 205q246 0 348 -213q145 213 385 213q190 0 298 -117t108 -324v-692h-193v641q0 154 -69.5 234.5t-198.5 80.5q-123 0 -204 -86t-81 -235v-635h-192v645q0 147 -71 229t-195 82q-123 0 -205 -91t-82 -234v-631h-193z" />
<glyph unicode="n" horiz-adv-x="1331" d="M184 0v1108h193v-186q131 211 368 211q195 0 305.5 -120t110.5 -319v-694h-192v641q0 147 -75 231t-210 84q-133 0 -220 -89t-87 -236v-631h-193z" />
<glyph unicode="o" horiz-adv-x="1400" d="M119 549v4q0 238 168 409t415.5 171t413.5 -168t166 -408v-4q0 -238 -168 -408t-415.5 -170t-413.5 168t-166 406zM313 553q0 -168 112.5 -288t276.5 -120q168 0 275.5 117t107.5 287v4q0 170 -111.5 290t-275.5 120q-168 0 -276.5 -119t-108.5 -287v-4z" />
<glyph unicode="p" horiz-adv-x="1435" d="M184 -340v1448h193v-211q158 236 411 236q209 0 367 -158t158 -418v-4q0 -262 -158 -420t-367 -158q-258 0 -411 226v-541h-193zM371 553q0 -178 112.5 -293t264.5 -115q158 0 263 110t105 296v4q0 180 -107.5 294t-260.5 114q-152 0 -264.5 -116t-112.5 -290v-4z" />
<glyph unicode="q" horiz-adv-x="1435" d="M123 551v4q0 262 155.5 420t368.5 158q248 0 412 -226v201h190v-1448h-190v551q-164 -236 -412 -236q-209 0 -366.5 158t-157.5 418zM319 553q0 -180 108 -294t259.5 -114t264 115t112.5 293v4q0 174 -112.5 290t-264.5 116q-158 0 -262.5 -111t-104.5 -295v-4z" />
<glyph unicode="r" horiz-adv-x="882" d="M184 0v1108h193v-277q59 139 173 221q103 74 232 75q14 0 29 -1v-202h-12q-186 0 -304 -127t-118 -361v-436h-193z" />
<glyph unicode="s" horiz-adv-x="1079" d="M92 141l94 135q190 -139 377 -139q94 0 152.5 43t58.5 115v4q0 31 -16.5 56.5t-34.5 41t-61.5 34t-70 26.5t-83.5 26q-82 25 -131 43.5t-109.5 54t-90.5 90t-30 128.5v4q0 147 107.5 236t275.5 89q213 0 402 -124l-84 -142q-170 106 -324 107q-90 0 -143 -41t-53 -105v-4 q0 -29 17 -53.5t36.5 -39.5t65 -33.5t71 -27t84.5 -26.5q76 -23 129 -44.5t109.5 -58t86 -91t29.5 -123.5v-5q0 -160 -112.5 -248.5t-288.5 -88.5q-260 0 -463 161z" />
<glyph unicode="t" horiz-adv-x="880" d="M92 940v168h150v326h190v-326h336v-168h-336v-616q0 -170 172 -170q80 0 160 39v-162q-88 -49 -207 -49q-145 0 -230 75.5t-85 239.5v643h-150z" />
<glyph unicode="u" horiz-adv-x="1331" d="M168 414v694h192v-641q0 -147 76 -231t211 -84q133 0 220 90t87 235v631h191v-1108h-191v186q-134 -211 -370 -211q-195 0 -305.5 120t-110.5 319z" />
<glyph unicode="v" horiz-adv-x="1271" d="M78 1108h209l350 -887l352 887h205l-473 -1116h-170z" />
<glyph unicode="w" horiz-adv-x="1849" d="M92 1108h201l270 -850l283 854h162l282 -854l273 850h196l-381 -1116h-170l-282 837l-285 -837h-170z" />
<glyph unicode="x" horiz-adv-x="1243" d="M86 0l424 563l-408 545h215l306 -416l307 416h211l-412 -541l428 -567h-217l-322 438l-321 -438h-211z" />
<glyph unicode="y" horiz-adv-x="1280" d="M76 1108h209l374 -893l336 893h203l-457 -1143q-68 -170 -152.5 -241.5t-215.5 -71.5q-117 0 -244 61l66 148q78 -41 165 -41q70 0 117 41t90 141z" />
<glyph unicode="z" horiz-adv-x="1204" d="M125 0v127l706 821h-681v160h935v-127l-706 -819h706v-162h-960z" />
<glyph unicode="{" horiz-adv-x="1046" d="M125 537v147h55q135 0 191.5 60.5t56.5 191.5q0 18 -1 80.5t-1 79.5q0 178 97.5 277.5t371.5 150.5l31 -127q-205 -55 -262.5 -120t-57.5 -208q0 -20 1 -77.5t1 -82.5q0 -127 -55 -195.5t-166 -103.5q115 -37 168 -102.5t53 -194.5q0 -25 -1 -82t-1 -77q0 -143 57.5 -208 t262.5 -120l-31 -127q-274 51 -371.5 150.5t-97.5 277.5q0 16 1 78.5t1 81.5q0 129 -56.5 189.5t-191.5 60.5h-55z" />
<glyph unicode="|" horiz-adv-x="679" d="M260 -272v1972h160v-1972h-160z" />
<glyph unicode="}" horiz-adv-x="1046" d="M121 -174q143 39 211.5 82t88 95t19.5 151q0 20 -1 77.5t-1 81.5q0 125 55.5 193.5t165.5 103.5q-113 39 -167 106.5t-54 192.5q0 25 1 82.5t1 77.5q0 98 -19.5 150.5t-88 95.5t-211.5 82l33 127q272 -51 370.5 -150.5t98.5 -277.5q0 -16 -2.5 -79t-2.5 -81 q0 -131 56.5 -191.5t191.5 -60.5h56v-147h-56q-135 0 -191.5 -60.5t-56.5 -189.5q0 -18 2.5 -81t2.5 -79q0 -178 -98.5 -277.5t-370.5 -150.5z" />
<glyph unicode="~" horiz-adv-x="1038" d="M156 532q33 127 81 182.5t132 55.5q49 0 159 -45q86 -41 131 -41q41 0 65 22.5t48 81.5l113 -32q-37 -127 -84 -181.5t-129 -54.5q-51 0 -162 45q-86 41 -131 41q-39 0 -62.5 -23.5t-50.5 -82.5z" />
<glyph unicode="&#xa1;" horiz-adv-x="614" d="M195 0v106l59 949h106l60 -949v-106h-225zM197 1245v246h221v-246h-221z" />
<glyph unicode="&#xa2;" horiz-adv-x="1253" d="M127 752v4q0 238 165 408.5t406 170.5h25l33 168h151l-39 -190q154 -43 275 -174l-123 -129q-100 100 -191 133l-155 -795h28q176 0 328 156l117 -111q-188 -215 -455 -215q-29 0 -43 2l-37 -192h-153l43 223q-166 57 -270.5 205.5t-104.5 335.5zM319 756 q0 -127 59.5 -226.5t164.5 -146.5l153 782h-4q-158 0 -265.5 -118.5t-107.5 -286.5v-4z" />
<glyph unicode="&#xa3;" horiz-adv-x="1388" d="M150 0v119l174 45v452h-174v170h174v222q0 244 133 376q131 127 344 127q160 0 267.5 -60t191.5 -173l-150 -119q-70 84 -140.5 128t-168.5 44q-119 0 -193 -74q-86 -86 -86 -253v-218h574v-170h-574v-442h735v-174h-1107z" />
<glyph unicode="&#xa5;" horiz-adv-x="1476" d="M61 1491h232l448 -696l453 696h223l-526 -776h373v-150h-430v-178h430v-149h-430v-238h-191v238h-428v149h428v178h-428v150h369z" />
<glyph unicode="&#xa7;" horiz-adv-x="1361" d="M137 756v4q0 96 72 157.5t194 86.5q-145 78 -145 213v4q0 133 107.5 211.5t291.5 78.5q297 0 488 -200l-117 -117q-166 162 -375 162q-100 0 -152 -36t-52 -93v-4q0 -57 69.5 -98.5t257.5 -84.5q246 -57 347.5 -125.5t101.5 -179.5v-4q0 -96 -72 -157.5t-195 -86.5 q147 -80 148 -213v-4q0 -133 -107.5 -211.5t-293.5 -78.5q-291 0 -488 200l119 117q166 -162 373 -162q100 0 152 36t52 93v4q0 57 -71.5 98.5t-255.5 84.5q-246 57 -347.5 125.5t-101.5 179.5zM317 780q0 -53 63.5 -93t223.5 -81q146 -37 230 -37q92 0 151 40t59 98v4 q0 53 -63 93t-223 81q-147 37 -228 37q-94 0 -153.5 -40t-59.5 -98v-4z" />
<glyph unicode="&#xa8;" horiz-adv-x="1081" d="M242 1268v217h213v-217h-213zM627 1268v217h213v-217h-213z" />
<glyph unicode="&#xa9;" horiz-adv-x="1783" d="M121 741v4q0 317 226 544t548 227t545 -224.5t223 -541.5v-5q0 -317 -224.5 -543.5t-548 -226.5t-546.5 224.5t-223 541.5zM195 741q0 -291 200.5 -493.5t495.5 -202.5t496.5 205t201.5 495v5q0 291 -200.5 493.5t-493.5 202.5q-297 0 -498.5 -205t-201.5 -496v-4z M500 754v4q0 170 116.5 290.5t288.5 120.5q102 0 171 -32.5t138 -96.5l-86 -94q-113 102 -225 103q-115 0 -192.5 -85t-77.5 -204v-4q0 -119 79 -205t193 -86q117 0 232 104l82 -84q-142 -141 -318 -141q-170 0 -285.5 120t-115.5 290z" />
<glyph unicode="&#xaa;" horiz-adv-x="847" d="M129 610v107h559v-107h-559zM135 1057v4q0 96 70.5 147.5t189.5 51.5q88 0 168 -25v12q0 143 -162 144q-74 0 -180 -45l-35 98q117 53 230 53q131 0 198 -70q63 -61 64 -182v-366h-117v79q-78 -94 -201 -94q-92 0 -158.5 51.5t-66.5 141.5zM256 1063q0 -47 37 -74.5 t92 -27.5q76 0 127 40.5t51 102.5v47q-63 23 -153 23q-72 0 -113 -29t-41 -78v-4z" />
<glyph unicode="&#xab;" horiz-adv-x="1224" d="M109 545v18l356 457l137 -76l-276 -387l276 -391l-137 -76zM600 545v18l356 457l138 -76l-277 -387l277 -391l-138 -76z" />
<glyph unicode="&#xad;" horiz-adv-x="884" d="M139 545v196h606v-196h-606z" />
<glyph unicode="&#xae;" horiz-adv-x="862" d="M59 1137v2q0 154 108.5 263t262.5 109t262.5 -108.5t108.5 -261.5v-2q0 -154 -108.5 -263.5t-262.5 -109.5t-262.5 108.5t-108.5 262.5zM102 1137q0 -137 94.5 -233.5t233.5 -96.5t233.5 97t94.5 235v2q0 137 -94.5 234.5t-233.5 97.5q-137 0 -232.5 -98.5t-95.5 -235.5 v-2zM283 956v381h174q68 0 108.5 -31.5t40.5 -91.5v-2q0 -43 -24.5 -73.5t-63.5 -40.5l100 -142h-96l-86 129h-74v-129h-79zM362 1149h89q74 0 73 59v2q0 27 -19.5 43.5t-53.5 14.5h-89v-119z" />
<glyph unicode="&#xaf;" horiz-adv-x="1081" d="M199 1305v149h684v-149h-684z" />
<glyph unicode="&#xb0;" horiz-adv-x="999" d="M160 1169v5q0 133 102.5 231t237.5 98t237.5 -98t102.5 -231v-5q0 -131 -102.5 -230t-237.5 -99t-237.5 99t-102.5 230zM293 1169q0 -84 59.5 -146t147.5 -62t148.5 62t60.5 146v5q0 84 -60.5 147t-148.5 63t-147.5 -63.5t-59.5 -146.5v-5z" />
<glyph unicode="&#xb1;" horiz-adv-x="1353" d="M170 0v168h1014v-168h-1014zM170 780v174h418v410h178v-410h418v-174h-418v-409h-178v409h-418z" />
<glyph unicode="&#xb2;" horiz-adv-x="860" d="M127 903v107l303 260q90 76 125 125t35 106q0 59 -43 97t-107 38q-117 0 -213 -137l-92 66q61 92 134 139t180 47q117 0 193.5 -68.5t76.5 -171.5q0 -84 -44 -149.5t-147 -151.5l-231 -194h428v-113h-598z" />
<glyph unicode="&#xb3;" horiz-adv-x="860" d="M109 1028l79 86q104 -121 238 -121q70 0 117 40t47 106q0 68 -56.5 105.5t-148.5 37.5h-76l-20 78l258 256h-389v113h547v-99l-259 -252q119 -8 195 -68.5t76 -168.5q0 -115 -83 -186.5t-210 -71.5q-190 0 -315 145z" />
<glyph unicode="&#xb4;" horiz-adv-x="1081" d="M383 1268l207 319l188 -86l-248 -233h-147z" />
<glyph unicode="&#xb5;" horiz-adv-x="1433" d="M184 -340v1448h193v-635q0 -141 84 -233.5t215 -92.5q129 0 214 92.5t85 233.5v635h192v-823q4 -72 37 -103.5t101 -31.5q52 0 77 8v-158q-57 -14 -125 -14q-217 0 -262 180q-115 -186 -315 -186q-106 0 -192.5 52t-133.5 152h-4q25 -162 25 -268v-256h-191z" />
<glyph unicode="&#xb6;" horiz-adv-x="1132" d="M106 1018v4q0 217 156 343t410 126h260v-1491h-199v551h-28q-264 0 -431.5 123t-167.5 344z" />
<glyph unicode="&#xb7;" horiz-adv-x="552" d="M166 522v244h223v-244h-223z" />
<glyph unicode="&#xb8;" horiz-adv-x="1081" d="M315 -258l197 289h147l-165 -367z" />
<glyph unicode="&#xb9;" horiz-adv-x="700" d="M125 1651l240 92h96v-840h-123v709l-178 -68z" />
<glyph unicode="&#xba;" horiz-adv-x="847" d="M109 1180v4q0 131 91 224t226 93q133 0 223 -92t90 -223v-4q0 -131 -91 -224.5t-226 -93.5t-224 91.5t-89 224.5zM117 610v107h614v-107h-614zM233 1182q0 -88 54.5 -147.5t138.5 -59.5t136 59.5t52 145.5v4q0 88 -54 147.5t-138 59.5t-136.5 -58.5t-52.5 -146.5v-4z" />
<glyph unicode="&#xbb;" horiz-adv-x="1224" d="M129 164l279 389l-279 389l137 78l357 -457v-18l-357 -455zM623 164l276 389l-276 389l137 78l356 -457v-18l-356 -455z" />
<glyph unicode="&#xbc;" horiz-adv-x="1775" d="M125 1413l240 90h96v-837h-123v708l-178 -67zM291 0l530 768l484 723h125l-531 -768l-483 -723h-125zM1018 293l407 545h134v-553h114v-103h-114v-186h-117v186h-402zM1137 283h307v407z" />
<glyph unicode="&#xbd;" horiz-adv-x="1775" d="M125 1413l240 90h96v-837h-123v708l-178 -67zM270 0l531 768l483 723h125l-530 -768l-484 -723h-125zM1057 0v106l303 261q90 76 125 125t35 106q0 59 -43 97t-107 38q-117 0 -213 -137l-92 66q61 92 134 139t179 47q117 0 194 -68.5t77 -171.5q0 -84 -44 -149.5 t-147 -151.5l-231 -194h428v-113h-598z" />
<glyph unicode="&#xbe;" horiz-adv-x="1935" d="M113 791l80 86q104 -121 237 -121q70 0 117 40t47 105q0 68 -56.5 105.5t-148.5 37.5h-76l-20 76l258 256h-389v115h547v-98l-258 -252q119 -8 194.5 -68.5t75.5 -169.5q0 -115 -84 -187.5t-209 -72.5q-188 0 -315 148zM440 0l531 768l483 723h125l-530 -768l-484 -723 h-125zM1178 293l407 545h133v-553h115v-103h-115v-186h-116v186h-402zM1296 283h308v407z" />
<glyph unicode="&#xbf;" horiz-adv-x="1163" d="M106 406v6q0 188 122 295.5t317 134.5l20 213h129l35 -346l-10 -11q-205 -6 -309.5 -79.5t-104.5 -202.5v-4q0 -111 78 -181.5t211 -70.5q213 0 375 190l125 -125q-207 -243 -504 -243q-217 0 -350.5 117.5t-133.5 306.5zM520 1245v246h223v-246h-223z" />
<glyph unicode="&#xc0;" d="M84 0l674 1501h184l672 -1501h-209l-170 385h-778l-170 -385h-203zM520 1841l189 84l221 -285h-156zM530 561h631l-315 711z" />
<glyph unicode="&#xc1;" d="M84 0l674 1501h184l672 -1501h-209l-170 385h-778l-170 -385h-203zM530 561h631l-315 711zM770 1640l223 285l187 -84l-252 -201h-158z" />
<glyph unicode="&#xc2;" d="M84 0l674 1501h184l672 -1501h-209l-170 385h-778l-170 -385h-203zM518 1636l242 262h180l242 -262h-174l-160 127l-160 -127h-170zM530 561h631l-315 711z" />
<glyph unicode="&#xc3;" d="M84 0l674 1501h184l672 -1501h-209l-170 385h-778l-170 -385h-203zM489 1655q37 121 85.5 176t125.5 55q51 0 172 -47q88 -35 123 -35q41 0 64.5 22.5t48.5 78.5l117 -35q-33 -119 -82 -174.5t-129 -55.5q-51 0 -172 48q-88 35 -123 34q-41 0 -64.5 -22.5t-48.5 -77.5z M530 561h631l-315 711z" />
<glyph unicode="&#xc4;" d="M84 0l674 1501h184l672 -1501h-209l-170 385h-778l-170 -385h-203zM530 561h631l-315 711zM535 1640v207h219v-207h-219zM946 1640v207h217v-207h-217z" />
<glyph unicode="&#xc5;" d="M84 0l633 1413q-109 63 -109 182q0 90 71 152.5t171 62.5t171 -62t71 -153q0 -117 -111 -182l633 -1413h-209l-170 385h-778l-170 -385h-203zM530 561h631l-315 711zM709 1595q0 -55 40 -92t101 -37q59 0 99 37t40 92q0 53 -40 90t-99 37q-61 0 -101 -36.5t-40 -90.5z " />
<glyph unicode="&#xc6;" horiz-adv-x="2242" d="M41 0l864 1491h1192v-178h-848v-473h752v-178h-752v-484h858v-178h-1054v385h-584l-223 -385h-205zM565 561h488v756h-49z" />
<glyph unicode="&#xc7;" horiz-adv-x="1595" d="M147 741v4q0 319 215.5 545t542.5 226q190 0 324.5 -59.5t257.5 -174.5l-129 -145q-213 199 -455 198q-236 0 -393.5 -169t-157.5 -416v-5q0 -248 158 -418.5t393 -170.5q141 0 247.5 51t217.5 158l129 -127q-119 -123 -252 -189.5t-309 -71.5l-141 -313l-179 78l164 242 q-276 41 -454.5 254t-178.5 503z" />
<glyph unicode="&#xc8;" horiz-adv-x="1443" d="M213 0v1491h1085v-178h-888v-473h792v-178h-792v-484h899v-178h-1096zM430 1821l188 84l222 -285h-156z" />
<glyph unicode="&#xc9;" horiz-adv-x="1443" d="M213 0v1491h1085v-178h-888v-473h792v-178h-792v-484h899v-178h-1096zM680 1620l223 285l187 -84l-252 -201h-158z" />
<glyph unicode="&#xca;" horiz-adv-x="1443" d="M213 0v1491h1085v-178h-888v-473h792v-178h-792v-484h899v-178h-1096zM428 1620l242 262h180l242 -262h-174l-160 127l-160 -127h-170z" />
<glyph unicode="&#xcb;" horiz-adv-x="1443" d="M213 0v1491h1085v-178h-888v-473h792v-178h-792v-484h899v-178h-1096zM446 1620v207h220v-207h-220zM858 1620v207h217v-207h-217z" />
<glyph unicode="&#xcc;" horiz-adv-x="653" d="M-2 1821l188 84l222 -285h-156zM227 0v1491h199v-1491h-199z" />
<glyph unicode="&#xcd;" horiz-adv-x="653" d="M227 0v1491h199v-1491h-199zM248 1620l223 285l186 -84l-251 -201h-158z" />
<glyph unicode="&#xce;" horiz-adv-x="653" d="M-4 1620l242 262h180l241 -262h-174l-159 127l-160 -127h-170zM227 0v1491h199v-1491h-199z" />
<glyph unicode="&#xcf;" horiz-adv-x="653" d="M14 1620v207h219v-207h-219zM227 0v1491h199v-1491h-199zM426 1620v207h217v-207h-217z" />
<glyph unicode="&#xd0;" horiz-adv-x="1744" d="M117 674v151h159v666h531q346 0 569 -212t223 -529v-5q0 -317 -223 -531t-569 -214h-531v674h-159zM475 180h332q264 0 425 159t161 402v4q0 244 -162 405t-424 161h-332v-486h424v-151h-424v-494z" />
<glyph unicode="&#xd1;" d="M213 0v1491h182l897 -1145v1145h195v-1491h-162l-919 1174v-1174h-193zM489 1630q37 121 85.5 176.5t125.5 55.5q51 0 172 -47q88 -35 123 -35q41 0 64.5 22.5t48.5 77.5l117 -35q-33 -119 -82 -174t-129 -55q-51 0 -172 47q-88 35 -123 35q-41 0 -64.5 -22.5 t-48.5 -78.5z" />
<glyph unicode="&#xd2;" horiz-adv-x="1826" d="M147 741v4q0 317 218.5 544t549.5 227q334 0 549 -223.5t215 -542.5v-5q0 -317 -218 -543.5t-550 -226.5q-334 0 -549 223.5t-215 542.5zM352 745q0 -244 161 -416.5t402.5 -172.5t400.5 170t159 415v4q0 244 -161 417t-402.5 173t-400.5 -170t-159 -415v-5zM584 1841 l188 84l221 -285h-155z" />
<glyph unicode="&#xd3;" horiz-adv-x="1826" d="M147 741v4q0 317 218.5 544t549.5 227q334 0 549 -223.5t215 -542.5v-5q0 -317 -218 -543.5t-550 -226.5q-334 0 -549 223.5t-215 542.5zM352 745q0 -244 161 -416.5t402.5 -172.5t400.5 170t159 415v4q0 244 -161 417t-402.5 173t-400.5 -170t-159 -415v-5zM834 1640 l223 285l186 -84l-252 -201h-157z" />
<glyph unicode="&#xd4;" horiz-adv-x="1826" d="M147 741v4q0 317 218.5 544t549.5 227q334 0 549 -223.5t215 -542.5v-5q0 -317 -218 -543.5t-550 -226.5q-334 0 -549 223.5t-215 542.5zM352 745q0 -244 161 -416.5t402.5 -172.5t400.5 170t159 415v4q0 244 -161 417t-402.5 173t-400.5 -170t-159 -415v-5zM582 1640 l241 263h181l241 -263h-174l-160 127l-159 -127h-170z" />
<glyph unicode="&#xd5;" horiz-adv-x="1826" d="M147 741v4q0 317 218.5 544t549.5 227q334 0 549 -223.5t215 -542.5v-5q0 -317 -218 -543.5t-550 -226.5q-334 0 -549 223.5t-215 542.5zM352 745q0 -244 161 -416.5t402.5 -172.5t400.5 170t159 415v4q0 244 -161 417t-402.5 173t-400.5 -170t-159 -415v-5zM553 1655 q37 121 85 176t126 55q51 0 172 -47q88 -35 123 -35q41 0 64.5 22.5t47.5 78.5l117 -35q-33 -119 -82 -174.5t-129 -55.5q-51 0 -172 48q-88 35 -123 34q-41 0 -64.5 -22.5t-47.5 -77.5z" />
<glyph unicode="&#xd6;" horiz-adv-x="1826" d="M147 741v4q0 317 218.5 544t549.5 227q334 0 549 -223.5t215 -542.5v-5q0 -317 -218 -543.5t-550 -226.5q-334 0 -549 223.5t-215 542.5zM352 745q0 -244 161 -416.5t402.5 -172.5t400.5 170t159 415v4q0 244 -161 417t-402.5 173t-400.5 -170t-159 -415v-5zM600 1640 v207h219v-207h-219zM1012 1640v207h217v-207h-217z" />
<glyph unicode="&#xd7;" horiz-adv-x="1353" d="M188 385l371 363l-371 362l127 127l365 -369l362 369l123 -121l-368 -364l368 -363l-127 -127l-362 369l-365 -369z" />
<glyph unicode="&#xd8;" horiz-adv-x="1826" d="M129 -10l211 233q-193 219 -193 518v4q0 317 218.5 544t549.5 227q258 0 459 -148l121 133h203l-211 -233q193 -219 192 -518v-5q0 -317 -218 -543.5t-550 -226.5q-260 0 -458 146l-121 -131h-203zM348 748q0 -217 125 -381l776 858q-147 115 -338 114 q-244 0 -403.5 -170.5t-159.5 -418.5v-2zM575 264q145 -112 340 -112q244 0 404 171t160 418v2q0 215 -125 379z" />
<glyph unicode="&#xd9;" horiz-adv-x="1632" d="M188 627v864h199v-854q0 -231 113.5 -355t318.5 -124q199 0 312.5 119.5t113.5 349.5v864h197v-852q0 -319 -169 -490.5t-458 -171.5t-458 168t-169 482zM485 1817l189 84l221 -285h-156z" />
<glyph unicode="&#xda;" horiz-adv-x="1632" d="M188 627v864h199v-854q0 -231 113.5 -355t318.5 -124q199 0 312.5 119.5t113.5 349.5v864h197v-852q0 -319 -169 -490.5t-458 -171.5t-458 168t-169 482zM735 1616l223 285l187 -84l-252 -201h-158z" />
<glyph unicode="&#xdb;" horiz-adv-x="1632" d="M188 627v864h199v-854q0 -231 113.5 -355t318.5 -124q199 0 312.5 119.5t113.5 349.5v864h197v-852q0 -319 -169 -490.5t-458 -171.5t-458 168t-169 482zM483 1616l242 262h180l242 -262h-174l-160 127l-160 -127h-170z" />
<glyph unicode="&#xdc;" horiz-adv-x="1632" d="M188 627v864h199v-854q0 -231 113.5 -355t318.5 -124q199 0 312.5 119.5t113.5 349.5v864h197v-852q0 -319 -169 -490.5t-458 -171.5t-458 168t-169 482zM502 1616v207h219v-207h-219zM913 1616v207h217v-207h-217z" />
<glyph unicode="&#xdd;" horiz-adv-x="1542" d="M59 1491h236l477 -721l481 721h230l-613 -897v-594h-198v590zM690 1616l223 285l187 -84l-252 -201h-158z" />
<glyph unicode="&#xde;" horiz-adv-x="1449" d="M213 0v1491h197v-250h370q254 0 407.5 -130t153.5 -349v-4q0 -233 -168.5 -364.5t-420.5 -131.5h-342v-262h-197zM410 440h350q172 0 277.5 86t105.5 226v4q0 150 -101.5 228.5t-277.5 78.5h-354v-623z" />
<glyph unicode="&#xdf;" horiz-adv-x="1337" d="M184 0v1067q0 227 133.5 364.5t358.5 137.5q203 0 323.5 -109.5t120.5 -277.5v-6q0 -252 -278 -381q162 -41 266 -134.5t104 -244.5v-4q0 -199 -156.5 -309.5t-422.5 -106.5v151q184 6 283.5 73t99.5 194v4q0 115 -103.5 186.5t-279.5 89.5v140q291 111 291 327v6 q0 104 -71 170t-187 66q-129 0 -209 -89t-80 -241v-1073h-193z" />
<glyph unicode="&#xe0;" horiz-adv-x="1253" d="M104 319v5q0 174 128 266t341 92q180 0 328 -47v37q0 139 -82 210.5t-231 71.5q-164 0 -330 -77l-55 153q209 94 407 94q238 0 361 -123q115 -115 114 -329v-672h-186v158q-143 -183 -387 -183q-166 0 -287 92.5t-121 251.5zM295 330q0 -94 74.5 -149.5t185.5 -55.5 q150 0 249 79t99 202v96q-145 47 -303 47q-145 0 -225 -57.5t-80 -157.5v-4zM311 1501l189 86l207 -319h-148z" />
<glyph unicode="&#xe1;" horiz-adv-x="1253" d="M104 319v5q0 174 128 266t341 92q180 0 328 -47v37q0 139 -82 210.5t-231 71.5q-164 0 -330 -77l-55 153q209 94 407 94q238 0 361 -123q115 -115 114 -329v-672h-186v158q-143 -183 -387 -183q-166 0 -287 92.5t-121 251.5zM295 330q0 -94 74.5 -149.5t185.5 -55.5 q150 0 249 79t99 202v96q-145 47 -303 47q-145 0 -225 -57.5t-80 -157.5v-4zM551 1268l207 319l188 -86l-248 -233h-147z" />
<glyph unicode="&#xe2;" horiz-adv-x="1253" d="M104 319v5q0 174 128 266t341 92q180 0 328 -47v37q0 139 -82 210.5t-231 71.5q-164 0 -330 -77l-55 153q209 94 407 94q238 0 361 -123q115 -115 114 -329v-672h-186v158q-143 -183 -387 -183q-166 0 -287 92.5t-121 251.5zM295 330q0 -94 74.5 -149.5t185.5 -55.5 q150 0 249 79t99 202v96q-145 47 -303 47q-145 0 -225 -57.5t-80 -157.5v-4zM309 1268l234 288h172l233 -288h-160l-161 143l-162 -143h-156z" />
<glyph unicode="&#xe3;" horiz-adv-x="1253" d="M104 319v5q0 174 128 266t341 92q180 0 328 -47v37q0 139 -82 210.5t-231 71.5q-164 0 -330 -77l-55 153q209 94 407 94q238 0 361 -123q115 -115 114 -329v-672h-186v158q-143 -183 -387 -183q-166 0 -287 92.5t-121 251.5zM272 1280q33 125 81 180.5t132 55.5 q53 0 160 -43q90 -41 131 -41t64.5 22.5t48.5 81.5l112 -33q-33 -125 -81 -180t-132 -55q-53 0 -159 43q-94 43 -131 43q-41 0 -64.5 -23.5t-48.5 -83.5zM295 330q0 -94 74.5 -149.5t185.5 -55.5q150 0 249 79t99 202v96q-145 47 -303 47q-145 0 -225 -57.5t-80 -157.5v-4z " />
<glyph unicode="&#xe4;" horiz-adv-x="1253" d="M104 319v5q0 174 128 266t341 92q180 0 328 -47v37q0 139 -82 210.5t-231 71.5q-164 0 -330 -77l-55 153q209 94 407 94q238 0 361 -123q115 -115 114 -329v-672h-186v158q-143 -183 -387 -183q-166 0 -287 92.5t-121 251.5zM295 330q0 -94 74.5 -149.5t185.5 -55.5 q150 0 249 79t99 202v96q-145 47 -303 47q-145 0 -225 -57.5t-80 -157.5v-4zM330 1268v217h213v-217h-213zM715 1268v217h213v-217h-213z" />
<glyph unicode="&#xe5;" horiz-adv-x="1253" d="M104 319v5q0 174 128 266t341 92q180 0 328 -47v37q0 139 -82 210.5t-231 71.5q-164 0 -330 -77l-55 153q209 94 407 94q238 0 361 -123q115 -115 114 -329v-672h-186v158q-143 -183 -387 -183q-166 0 -287 92.5t-121 251.5zM295 330q0 -94 74.5 -149.5t185.5 -55.5 q150 0 249 79t99 202v96q-145 47 -303 47q-145 0 -225 -57.5t-80 -157.5v-4zM393 1491q0 92 69.5 159.5t166 67.5t166 -67.5t69.5 -159.5q0 -94 -69.5 -160.5t-166 -66.5t-166 66.5t-69.5 160.5zM483 1491q0 -59 43 -102t102.5 -43t102.5 43t43 102t-43 102t-102.5 43 t-102.5 -43t-43 -102z" />
<glyph unicode="&#xe6;" horiz-adv-x="2045" d="M104 319v5q0 174 126 266t337 92q168 0 316 -47v37q0 139 -78 210.5t-225 71.5q-156 0 -322 -77l-55 153q203 94 399 94q313 0 402 -221q68 106 175 168t238 62q240 0 379 -169t139 -421q0 -37 -2 -60h-860q16 -162 119.5 -254t249.5 -92q188 0 334 150l116 -105 q-180 -207 -454 -207q-279 0 -439 211q-219 -211 -477 -211q-174 0 -296 92.5t-122 251.5zM295 330q0 -94 72.5 -148.5t181.5 -54.5q211 0 377 180q-33 90 -43 197q-160 45 -289 45q-141 0 -220 -57.5t-79 -157.5v-4zM1073 621h668q-12 152 -98.5 251t-231.5 99 q-135 0 -228.5 -98t-109.5 -252z" />
<glyph unicode="&#xe7;" horiz-adv-x="1232" d="M119 549v4q0 238 165 409t406 171q254 0 443 -197l-123 -131q-78 78 -150 118t-172 40q-158 0 -266.5 -119t-108.5 -287v-4q0 -172 111 -290t274 -118q172 0 324 156l119 -115q-176 -197 -416 -209l-141 -313l-178 78l165 246q-199 37 -325.5 196.5t-126.5 364.5z" />
<glyph unicode="&#xe8;" horiz-adv-x="1284" d="M119 551v4q0 242 152.5 410t381.5 168q244 0 383.5 -169t139.5 -421q0 -14 -5 -60h-858q16 -162 120 -254t247 -92q190 0 336 150l117 -105q-181 -207 -457 -207q-233 0 -395 161t-162 415zM311 621h670q-12 152 -98 251t-232 99q-137 0 -230.5 -98t-109.5 -252z M334 1501l188 86l207 -319h-147z" />
<glyph unicode="&#xe9;" horiz-adv-x="1284" d="M119 551v4q0 242 152.5 410t381.5 168q244 0 383.5 -169t139.5 -421q0 -14 -5 -60h-858q16 -162 120 -254t247 -92q190 0 336 150l117 -105q-181 -207 -457 -207q-233 0 -395 161t-162 415zM311 621h670q-12 152 -98 251t-232 99q-137 0 -230.5 -98t-109.5 -252z M573 1268l207 319l189 -86l-248 -233h-148z" />
<glyph unicode="&#xea;" horiz-adv-x="1284" d="M119 551v4q0 242 152.5 410t381.5 168q244 0 383.5 -169t139.5 -421q0 -14 -5 -60h-858q16 -162 120 -254t247 -92q190 0 336 150l117 -105q-181 -207 -457 -207q-233 0 -395 161t-162 415zM311 621h670q-12 152 -98 251t-232 99q-137 0 -230.5 -98t-109.5 -252z M332 1268l233 288h172l234 -288h-160l-162 143l-162 -143h-155z" />
<glyph unicode="&#xeb;" horiz-adv-x="1284" d="M119 551v4q0 242 152.5 410t381.5 168q244 0 383.5 -169t139.5 -421q0 -14 -5 -60h-858q16 -162 120 -254t247 -92q190 0 336 150l117 -105q-181 -207 -457 -207q-233 0 -395 161t-162 415zM311 621h670q-12 152 -98 251t-232 99q-137 0 -230.5 -98t-109.5 -252z M352 1268v217h213v-217h-213zM737 1268v217h213v-217h-213z" />
<glyph unicode="&#xec;" horiz-adv-x="591" d="M-20 1501l188 86l207 -319h-148zM201 0v1108h190v-1108h-190z" />
<glyph unicode="&#xed;" horiz-adv-x="591" d="M201 0v1108h190v-1108h-190zM221 1268l207 319l188 -86l-247 -233h-148z" />
<glyph unicode="&#xee;" horiz-adv-x="591" d="M-23 1268l234 288h172l233 -288h-159l-162 143l-162 -143h-156zM201 0v1108h190v-1108h-190z" />
<glyph unicode="&#xef;" horiz-adv-x="591" d="M-2 1268v217h213v-217h-213zM201 0v1108h190v-1108h-190zM383 1268v217h213v-217h-213z" />
<glyph unicode="&#xf0;" horiz-adv-x="1398" d="M119 559v4q0 233 152.5 388t363.5 155q195 0 360 -139q-78 156 -274 344l-248 -94l-51 114l196 74l-188 149h268q76 -61 97 -81l231 88l49 -113l-180 -70q383 -377 383 -770v-4q0 -274 -161 -451.5t-425 -177.5q-244 0 -408.5 169t-164.5 415zM313 547q0 -166 111.5 -284 t275.5 -118q168 0 275.5 115t107.5 289v4q0 168 -110.5 280.5t-286.5 112.5q-166 0 -269.5 -112.5t-103.5 -280.5v-6z" />
<glyph unicode="&#xf1;" horiz-adv-x="1331" d="M184 0v1108h193v-186q131 211 368 211q195 0 305.5 -120t110.5 -319v-694h-192v641q0 147 -75 231t-210 84q-133 0 -220 -89t-87 -236v-631h-193zM315 1280q33 125 81 180.5t132 55.5q53 0 160 -43q90 -41 131 -41t64.5 22.5t48.5 81.5l112 -33q-33 -125 -81 -180 t-132 -55q-53 0 -159 43q-94 43 -131 43q-41 0 -64.5 -23.5t-48.5 -83.5z" />
<glyph unicode="&#xf2;" horiz-adv-x="1400" d="M119 549v4q0 238 168 409t415.5 171t413.5 -168t166 -408v-4q0 -238 -168 -408t-415.5 -170t-413.5 168t-166 406zM313 553q0 -168 112.5 -288t276.5 -120q168 0 275.5 117t107.5 287v4q0 170 -111.5 290t-275.5 120q-168 0 -276.5 -119t-108.5 -287v-4zM381 1501l188 86 l207 -319h-147z" />
<glyph unicode="&#xf3;" horiz-adv-x="1400" d="M119 549v4q0 238 168 409t415.5 171t413.5 -168t166 -408v-4q0 -238 -168 -408t-415.5 -170t-413.5 168t-166 406zM313 553q0 -168 112.5 -288t276.5 -120q168 0 275.5 117t107.5 287v4q0 170 -111.5 290t-275.5 120q-168 0 -276.5 -119t-108.5 -287v-4zM623 1268 l206 319l189 -86l-248 -233h-147z" />
<glyph unicode="&#xf4;" horiz-adv-x="1400" d="M119 549v4q0 238 168 409t415.5 171t413.5 -168t166 -408v-4q0 -238 -168 -408t-415.5 -170t-413.5 168t-166 406zM313 553q0 -168 112.5 -288t276.5 -120q168 0 275.5 117t107.5 287v4q0 170 -111.5 290t-275.5 120q-168 0 -276.5 -119t-108.5 -287v-4zM381 1268 l233 288h172l234 -288h-160l-162 143l-161 -143h-156z" />
<glyph unicode="&#xf5;" horiz-adv-x="1400" d="M119 549v4q0 238 168 409t415.5 171t413.5 -168t166 -408v-4q0 -238 -168 -408t-415.5 -170t-413.5 168t-166 406zM313 553q0 -168 112.5 -288t276.5 -120q168 0 275.5 117t107.5 287v4q0 170 -111.5 290t-275.5 120q-168 0 -276.5 -119t-108.5 -287v-4zM344 1280 q33 125 81 180.5t132 55.5q53 0 160 -43q90 -41 131 -41t64.5 22.5t48.5 81.5l112 -33q-33 -125 -81 -180t-132 -55q-53 0 -160 43q-94 43 -131 43q-41 0 -64.5 -23.5t-47.5 -83.5z" />
<glyph unicode="&#xf6;" horiz-adv-x="1400" d="M119 549v4q0 238 168 409t415.5 171t413.5 -168t166 -408v-4q0 -238 -168 -408t-415.5 -170t-413.5 168t-166 406zM313 553q0 -168 112.5 -288t276.5 -120q168 0 275.5 117t107.5 287v4q0 170 -111.5 290t-275.5 120q-168 0 -276.5 -119t-108.5 -287v-4zM401 1268v217 h213v-217h-213zM786 1268v217h213v-217h-213z" />
<glyph unicode="&#xf7;" horiz-adv-x="1353" d="M154 664v172h1046v-172h-1046zM559 203v235h236v-235h-236zM559 1061v235h236v-235h-236z" />
<glyph unicode="&#xf8;" horiz-adv-x="1400" d="M86 -10l170 184q-137 156 -137 375v4q0 238 168 409t415 171q186 0 338 -107l88 96h187l-172 -188q139 -158 139 -377v-4q0 -238 -168 -408t-416 -170q-186 0 -340 105l-86 -90h-186zM309 555q0 -141 74 -248l543 586q-100 74 -228 74q-172 0 -280.5 -119t-108.5 -291v-2 zM475 211q96 -72 227 -72q170 0 280 120t110 290v2q0 133 -76 248z" />
<glyph unicode="&#xf9;" horiz-adv-x="1331" d="M168 414v694h192v-641q0 -147 76 -231t211 -84q133 0 220 90t87 235v631h191v-1108h-191v186q-134 -211 -370 -211q-195 0 -305.5 120t-110.5 319zM338 1501l188 86l207 -319h-147z" />
<glyph unicode="&#xfa;" horiz-adv-x="1331" d="M168 414v694h192v-641q0 -147 76 -231t211 -84q133 0 220 90t87 235v631h191v-1108h-191v186q-134 -211 -370 -211q-195 0 -305.5 120t-110.5 319zM580 1268l206 319l189 -86l-248 -233h-147z" />
<glyph unicode="&#xfb;" horiz-adv-x="1331" d="M168 414v694h192v-641q0 -147 76 -231t211 -84q133 0 220 90t87 235v631h191v-1108h-191v186q-134 -211 -370 -211q-195 0 -305.5 120t-110.5 319zM336 1268l233 288h172l234 -288h-160l-162 143l-161 -143h-156z" />
<glyph unicode="&#xfc;" horiz-adv-x="1331" d="M168 414v694h192v-641q0 -147 76 -231t211 -84q133 0 220 90t87 235v631h191v-1108h-191v186q-134 -211 -370 -211q-195 0 -305.5 120t-110.5 319zM356 1268v217h213v-217h-213zM741 1268v217h213v-217h-213z" />
<glyph unicode="&#xfd;" horiz-adv-x="1280" d="M76 1108h209l374 -893l336 893h203l-457 -1143q-68 -170 -152.5 -241.5t-215.5 -71.5q-117 0 -244 61l66 148q78 -41 165 -41q70 0 117 41t90 141zM567 1268l207 319l189 -86l-248 -233h-148z" />
<glyph unicode="&#xfe;" horiz-adv-x="1435" d="M184 -340v1894h193v-657q158 236 411 236q209 0 367 -158t158 -418v-4q0 -262 -158 -420t-367 -158q-258 0 -411 226v-541h-193zM371 553q0 -178 112.5 -293t264.5 -115q158 0 263 110t105 296v4q0 180 -107.5 294t-260.5 114q-152 0 -264.5 -116t-112.5 -290v-4z" />
<glyph unicode="&#xff;" horiz-adv-x="1280" d="M76 1108h209l374 -893l336 893h203l-457 -1143q-68 -170 -152.5 -241.5t-215.5 -71.5q-117 0 -244 61l66 148q78 -41 165 -41q70 0 117 41t90 141zM344 1268v217h213v-217h-213zM729 1268v217h213v-217h-213z" />
<glyph unicode="&#x152;" horiz-adv-x="2404" d="M147 741v4q0 319 221.5 532.5t569.5 213.5h1321v-178h-848v-473h754v-178h-754v-484h860v-178h-1333q-348 0 -569.5 212t-221.5 529zM352 745q0 -244 162 -404.5t424 -160.5h276v1131h-276q-264 0 -425 -159t-161 -402v-5z" />
<glyph unicode="&#x153;" horiz-adv-x="2244" d="M119 549v4q0 238 167 409t410 171q154 0 278 -75t193 -202q68 127 184.5 202t262.5 75q242 0 381 -169t139 -421q0 -37 -2 -60h-858q16 -162 118.5 -254t247.5 -92q188 0 334 150l119 -105q-186 -207 -455 -207q-152 0 -276.5 74t-196.5 203q-70 -127 -195.5 -202 t-281.5 -75q-238 0 -403.5 169t-165.5 405zM313 553q0 -168 111 -288t274.5 -120t271 118t107.5 286v4q0 170 -109.5 290t-273.5 120q-166 0 -273.5 -119t-107.5 -287v-4zM1272 621h667q-12 152 -98 251t-231 99q-135 0 -228.5 -98t-109.5 -252z" />
<glyph unicode="&#x178;" horiz-adv-x="1542" d="M59 1491h236l477 -721l481 721h230l-613 -897v-594h-198v590zM457 1616v207h219v-207h-219zM868 1616v207h217v-207h-217z" />
<glyph unicode="&#x2c6;" horiz-adv-x="1081" d="M221 1268l234 288h172l233 -288h-160l-161 143l-162 -143h-156z" />
<glyph unicode="&#x2dc;" horiz-adv-x="1081" d="M176 1280q33 125 81 180.5t132 55.5q53 0 160 -43q90 -41 131 -41t64.5 22.5t48.5 81.5l112 -33q-33 -125 -81 -180t-132 -55q-53 0 -160 43q-94 43 -131 43q-41 0 -64.5 -23.5t-47.5 -83.5z" />
<glyph unicode="&#x2000;" horiz-adv-x="962" />
<glyph unicode="&#x2001;" horiz-adv-x="1925" />
<glyph unicode="&#x2002;" horiz-adv-x="962" />
<glyph unicode="&#x2003;" horiz-adv-x="1925" />
<glyph unicode="&#x2004;" horiz-adv-x="641" />
<glyph unicode="&#x2005;" horiz-adv-x="481" />
<glyph unicode="&#x2006;" horiz-adv-x="320" />
<glyph unicode="&#x2007;" horiz-adv-x="320" />
<glyph unicode="&#x2008;" horiz-adv-x="240" />
<glyph unicode="&#x2009;" horiz-adv-x="385" />
<glyph unicode="&#x200a;" horiz-adv-x="106" />
<glyph unicode="&#x2010;" horiz-adv-x="884" d="M139 545v196h606v-196h-606z" />
<glyph unicode="&#x2011;" horiz-adv-x="884" d="M139 545v196h606v-196h-606z" />
<glyph unicode="&#x2012;" horiz-adv-x="884" d="M139 545v196h606v-196h-606z" />
<glyph unicode="&#x2013;" horiz-adv-x="1140" d="M139 551v186h862v-186h-862z" />
<glyph unicode="&#x2014;" horiz-adv-x="1929" d="M139 551v186h1649v-186h-1649z" />
<glyph unicode="&#x2018;" horiz-adv-x="552" d="M156 981v211q0 141 63.5 214t200.5 95l24 -86q-166 -49 -153 -188h86v-246h-221z" />
<glyph unicode="&#x2019;" horiz-adv-x="552" d="M109 1057q168 51 155 188h-88v246h223v-209q0 -143 -63.5 -215.5t-200.5 -95.5z" />
<glyph unicode="&#x201a;" horiz-adv-x="552" d="M98 -188q168 49 156 188h-88v246h223v-211q0 -141 -63.5 -213.5t-200.5 -95.5z" />
<glyph unicode="&#x201c;" horiz-adv-x="999" d="M156 981v211q0 141 63.5 214t200.5 95l24 -86q-166 -49 -153 -188h86v-246h-221zM602 981v211q0 141 63.5 214t198.5 95l27 -86q-166 -49 -154 -188h86v-246h-221z" />
<glyph unicode="&#x201d;" horiz-adv-x="999" d="M109 1057q168 51 155 188h-88v246h223v-209q0 -143 -63.5 -215.5t-200.5 -95.5zM555 1057q168 51 156 188h-88v246h223v-209q0 -143 -63.5 -215.5t-200.5 -95.5z" />
<glyph unicode="&#x201e;" horiz-adv-x="999" d="M98 -188q168 49 156 188h-88v246h223v-211q0 -141 -63.5 -213.5t-200.5 -95.5zM545 -188q168 49 155 188h-88v246h224v-211q0 -141 -64 -213.5t-201 -95.5z" />
<glyph unicode="&#x2022;" horiz-adv-x="1042" d="M236 748v4q0 117 85 199.5t201 82.5q115 0 200 -83t85 -199v-4q0 -117 -84 -200t-201 -83q-119 0 -202.5 82t-83.5 201z" />
<glyph unicode="&#x2026;" horiz-adv-x="1601" d="M166 0v240h217v-240h-217zM692 0v240h217v-240h-217zM1219 0v240h217v-240h-217z" />
<glyph unicode="&#x202f;" horiz-adv-x="385" />
<glyph unicode="&#x2039;" horiz-adv-x="731" d="M109 545v18l356 457l137 -76l-276 -387l276 -391l-137 -76z" />
<glyph unicode="&#x203a;" horiz-adv-x="731" d="M129 164l279 389l-279 389l137 78l357 -457v-18l-357 -455z" />
<glyph unicode="&#x205f;" horiz-adv-x="481" />
<glyph unicode="&#x20ac;" horiz-adv-x="1550" d="M125 498v147h170q-4 23 -4 98v2q0 57 6 115h-172v148h199q63 227 219.5 367.5t371.5 140.5q182 0 301.5 -74t215.5 -213l-150 -111q-80 115 -165 169t-206 54q-135 0 -235.5 -89t-149.5 -244h523v-148h-553q-6 -55 -7 -112v-3q0 -78 5 -100h555v-147h-527 q45 -162 153.5 -255t256.5 -93q115 0 197.5 57t164.5 176l142 -100q-102 -147 -221 -227.5t-287 -80.5q-227 0 -389 142.5t-220 380.5h-194z" />
<glyph unicode="&#x2122;" horiz-adv-x="1486" d="M63 1395v96h521v-96h-209v-559h-105v559h-207zM727 836v655h111l223 -344l221 344h109v-655h-103v491l-223 -344h-12l-224 344v-491h-102z" />
<glyph unicode="&#x25fc;" horiz-adv-x="1105" d="M0 0v1106h1106v-1106h-1106z" />
</font>
</defs>
</svg>
